<svg width="512" height="512" version="1.1" viewBox="0 0 135 135" xmlns="http://www.w3.org/2000/svg">
  <rect width="135" height="135" fill="#fff" style="paint-order:stroke fill markers"></rect>
  <rect width="49.5" height="135" fill="#039" style="paint-order:stroke fill markers"></rect>
  <g stroke-linejoin="round" stroke-miterlimit="5" stroke-width=".136" style="paint-order:stroke fill markers" aria-label="KFZ">
    <path d="m41.2 90.1q0.655 0.896 0.655 1.72 0 1.07-2 1.07h-5.1q-1.07 0-1.89-1.34l-10.6-18.1q-0.345-0.482-0.861-0.482-0.379 0-0.689 0.482l-2.69 3.62q-0.655 1.03-0.655 2.14v12.4q0 0.586-0.482 0.93-0.413 0.413-0.965 0.413h-4.51q-0.689 0-1.03-0.413-0.413-0.551-0.413-0.93v-47.5q0-0.482 0.413-1.03 0.31-0.482 0.93-0.482h4.72q0.586 0 0.965 0.379 0.379 0.379 0.379 0.965v19.7q0 0.551 0.758 0.655 0.482 0 1.07-0.655l15.3-19.9q0-0.0689 0.0344-0.0689 0.0689-0.0344 0.0689-0.138 0.758-0.93 1.62-0.93h3.65q2 0 2 1.03 0 0.723-0.655 1.65l-14.1 19.1q-0.207 0.207-0.207 0.482 0 0.0344 0.207 0.379 0 0.103 0 0.138 0 0 0 0.0689z" fill="#fff"></path>
    <path d="m89 47.5q0 0.482-0.379 0.965-0.345 0.379-0.965 0.379h-19.2q-1.55 0-2.41 1.17-0.965 1.14-0.965 2.76v13.1q0 0.448 0.379 1.03 0.482 0.482 0.965 0.482h15.1q0.655 0 1.03 0.379 0.379 0.586 0.379 1.07v4.51q0 1.45-1.41 1.45h-15q-1.45 0-1.45 1.41v15.3q0 1.45-1.45 1.45h-5.17q-1.45 0-1.45-1.45v-42.6q0-2.55 1.93-4.48 1.89-1.83 6.13-1.83h22.4q0.689 0 1.03 0.379 0.482 0.448 0.482 0.965zm36.5 44.3q0 1.07-1.14 1.07h-29.7q-1.07 0-1.07-1.17v-7.48q0-0.379 0.103-0.586 0.413-0.689 0.207-0.482l21.2-33.1q0.172-0.345 0.172-0.482 0-0.689-0.655-0.689h-19.8q-1.17 0-1.17-1.03v-4.13q0-1.14 1.07-1.14h29.1q1.07 0 1.07 1.14v5.17q0 0.172-0.0689 0.31-0.0345 0.138-0.0345 0.276-0.172 0.448-0.207 0.482l-21.3 33.7q-0.103 0.207-0.103 0.482 0 0.689 0.655 0.689h20.5q1.14 0 1.14 1.03z"></path>
  </g>
  <style>@media (prefers-color-scheme: light) { :root { filter: none; } }
@media (prefers-color-scheme: dark) { :root { filter: none; } }
</style></svg>